<mxfile host="Electron" modified="2024-03-22T16:48:50.783Z" agent="Mozilla/5.0 (Windows NT 10.0; Win64; x64) AppleWebKit/537.36 (KHTML, like Gecko) draw.io/24.0.4 Chrome/120.0.6099.109 Electron/28.1.0 Safari/537.36" etag="_bfFRd0Qyt9T8Lb10ei-" version="24.0.4" type="device">
  <diagram name="Pagina-1" id="DQLd6VmTGFpjPwLgHove">
    <mxGraphModel dx="1012" dy="614" grid="1" gridSize="10" guides="1" tooltips="1" connect="1" arrows="1" fold="1" page="1" pageScale="1" pageWidth="827" pageHeight="1169" math="0" shadow="0">
      <root>
        <mxCell id="0" />
        <mxCell id="1" parent="0" />
        <mxCell id="rvrunStQ9OsGQTBkVK9R-7" style="edgeStyle=orthogonalEdgeStyle;rounded=0;orthogonalLoop=1;jettySize=auto;html=1;entryX=0;entryY=0.5;entryDx=0;entryDy=0;" parent="1" source="rvrunStQ9OsGQTBkVK9R-2" target="rvrunStQ9OsGQTBkVK9R-5" edge="1">
          <mxGeometry relative="1" as="geometry" />
        </mxCell>
        <mxCell id="rvrunStQ9OsGQTBkVK9R-13" style="edgeStyle=orthogonalEdgeStyle;rounded=0;orthogonalLoop=1;jettySize=auto;html=1;entryX=0;entryY=0.5;entryDx=0;entryDy=0;" parent="1" source="rvrunStQ9OsGQTBkVK9R-2" target="rvrunStQ9OsGQTBkVK9R-11" edge="1">
          <mxGeometry relative="1" as="geometry" />
        </mxCell>
        <mxCell id="rvrunStQ9OsGQTBkVK9R-20" style="edgeStyle=orthogonalEdgeStyle;rounded=0;orthogonalLoop=1;jettySize=auto;html=1;entryX=0;entryY=0.5;entryDx=0;entryDy=0;" parent="1" source="rvrunStQ9OsGQTBkVK9R-2" target="rvrunStQ9OsGQTBkVK9R-14" edge="1">
          <mxGeometry relative="1" as="geometry" />
        </mxCell>
        <mxCell id="rvrunStQ9OsGQTBkVK9R-21" style="edgeStyle=orthogonalEdgeStyle;rounded=0;orthogonalLoop=1;jettySize=auto;html=1;entryX=0;entryY=0.5;entryDx=0;entryDy=0;" parent="1" source="rvrunStQ9OsGQTBkVK9R-2" target="rvrunStQ9OsGQTBkVK9R-16" edge="1">
          <mxGeometry relative="1" as="geometry" />
        </mxCell>
        <mxCell id="rvrunStQ9OsGQTBkVK9R-22" style="edgeStyle=orthogonalEdgeStyle;rounded=0;orthogonalLoop=1;jettySize=auto;html=1;entryX=0;entryY=0.5;entryDx=0;entryDy=0;" parent="1" source="rvrunStQ9OsGQTBkVK9R-2" target="rvrunStQ9OsGQTBkVK9R-18" edge="1">
          <mxGeometry relative="1" as="geometry" />
        </mxCell>
        <mxCell id="rvrunStQ9OsGQTBkVK9R-54" value="" style="edgeStyle=orthogonalEdgeStyle;rounded=0;orthogonalLoop=1;jettySize=auto;html=1;endArrow=doubleBlock;endFill=1;" parent="1" source="rvrunStQ9OsGQTBkVK9R-2" target="rvrunStQ9OsGQTBkVK9R-51" edge="1">
          <mxGeometry relative="1" as="geometry" />
        </mxCell>
        <mxCell id="rvrunStQ9OsGQTBkVK9R-56" style="edgeStyle=orthogonalEdgeStyle;rounded=0;orthogonalLoop=1;jettySize=auto;html=1;entryX=1;entryY=0.5;entryDx=0;entryDy=0;endArrow=doubleBlock;endFill=1;" parent="1" source="rvrunStQ9OsGQTBkVK9R-2" target="rvrunStQ9OsGQTBkVK9R-53" edge="1">
          <mxGeometry relative="1" as="geometry" />
        </mxCell>
        <mxCell id="rvrunStQ9OsGQTBkVK9R-2" value="Evento" style="rounded=0;whiteSpace=wrap;html=1;" parent="1" vertex="1">
          <mxGeometry x="350" y="140" width="120" height="60" as="geometry" />
        </mxCell>
        <mxCell id="rvrunStQ9OsGQTBkVK9R-29" style="edgeStyle=orthogonalEdgeStyle;rounded=0;orthogonalLoop=1;jettySize=auto;html=1;entryX=0;entryY=0.5;entryDx=0;entryDy=0;" parent="1" source="rvrunStQ9OsGQTBkVK9R-3" target="rvrunStQ9OsGQTBkVK9R-25" edge="1">
          <mxGeometry relative="1" as="geometry">
            <Array as="points">
              <mxPoint x="100" y="280" />
            </Array>
          </mxGeometry>
        </mxCell>
        <mxCell id="rvrunStQ9OsGQTBkVK9R-30" style="edgeStyle=orthogonalEdgeStyle;rounded=0;orthogonalLoop=1;jettySize=auto;html=1;entryX=0;entryY=0.5;entryDx=0;entryDy=0;" parent="1" source="rvrunStQ9OsGQTBkVK9R-3" target="rvrunStQ9OsGQTBkVK9R-27" edge="1">
          <mxGeometry relative="1" as="geometry">
            <Array as="points">
              <mxPoint x="100" y="310" />
            </Array>
          </mxGeometry>
        </mxCell>
        <mxCell id="rvrunStQ9OsGQTBkVK9R-55" style="edgeStyle=orthogonalEdgeStyle;rounded=0;orthogonalLoop=1;jettySize=auto;html=1;entryX=0;entryY=0.5;entryDx=0;entryDy=0;" parent="1" source="rvrunStQ9OsGQTBkVK9R-3" target="rvrunStQ9OsGQTBkVK9R-53" edge="1">
          <mxGeometry relative="1" as="geometry" />
        </mxCell>
        <mxCell id="eSKK0i__fi3eBEM8M7m1-3" style="edgeStyle=orthogonalEdgeStyle;rounded=0;orthogonalLoop=1;jettySize=auto;html=1;entryX=0;entryY=0.5;entryDx=0;entryDy=0;" parent="1" source="rvrunStQ9OsGQTBkVK9R-3" target="eSKK0i__fi3eBEM8M7m1-1" edge="1">
          <mxGeometry relative="1" as="geometry">
            <mxPoint x="100" y="250" as="targetPoint" />
            <Array as="points">
              <mxPoint x="100" y="238" />
              <mxPoint x="160" y="238" />
            </Array>
          </mxGeometry>
        </mxCell>
        <mxCell id="rvrunStQ9OsGQTBkVK9R-3" value="Partecipante" style="rounded=0;whiteSpace=wrap;html=1;" parent="1" vertex="1">
          <mxGeometry x="40" y="140" width="120" height="60" as="geometry" />
        </mxCell>
        <mxCell id="rvrunStQ9OsGQTBkVK9R-44" style="edgeStyle=orthogonalEdgeStyle;rounded=0;orthogonalLoop=1;jettySize=auto;html=1;entryX=0;entryY=0.5;entryDx=0;entryDy=0;" parent="1" source="rvrunStQ9OsGQTBkVK9R-4" target="rvrunStQ9OsGQTBkVK9R-33" edge="1">
          <mxGeometry relative="1" as="geometry" />
        </mxCell>
        <mxCell id="rvrunStQ9OsGQTBkVK9R-46" style="edgeStyle=orthogonalEdgeStyle;rounded=0;orthogonalLoop=1;jettySize=auto;html=1;entryX=0;entryY=0.5;entryDx=0;entryDy=0;" parent="1" source="rvrunStQ9OsGQTBkVK9R-4" target="rvrunStQ9OsGQTBkVK9R-37" edge="1">
          <mxGeometry relative="1" as="geometry" />
        </mxCell>
        <mxCell id="rvrunStQ9OsGQTBkVK9R-47" style="edgeStyle=orthogonalEdgeStyle;rounded=0;orthogonalLoop=1;jettySize=auto;html=1;entryX=0;entryY=0.5;entryDx=0;entryDy=0;" parent="1" source="rvrunStQ9OsGQTBkVK9R-4" target="rvrunStQ9OsGQTBkVK9R-39" edge="1">
          <mxGeometry relative="1" as="geometry" />
        </mxCell>
        <mxCell id="rvrunStQ9OsGQTBkVK9R-48" style="edgeStyle=orthogonalEdgeStyle;rounded=0;orthogonalLoop=1;jettySize=auto;html=1;entryX=0;entryY=0.5;entryDx=0;entryDy=0;" parent="1" source="rvrunStQ9OsGQTBkVK9R-4" target="rvrunStQ9OsGQTBkVK9R-41" edge="1">
          <mxGeometry relative="1" as="geometry" />
        </mxCell>
        <mxCell id="rvrunStQ9OsGQTBkVK9R-57" style="edgeStyle=orthogonalEdgeStyle;rounded=0;orthogonalLoop=1;jettySize=auto;html=1;endArrow=classic;endFill=1;" parent="1" source="rvrunStQ9OsGQTBkVK9R-4" target="rvrunStQ9OsGQTBkVK9R-51" edge="1">
          <mxGeometry relative="1" as="geometry" />
        </mxCell>
        <mxCell id="rvrunStQ9OsGQTBkVK9R-4" value="Risorsa" style="rounded=0;whiteSpace=wrap;html=1;" parent="1" vertex="1">
          <mxGeometry x="630" y="140" width="120" height="60" as="geometry" />
        </mxCell>
        <mxCell id="rvrunStQ9OsGQTBkVK9R-5" value="" style="ellipse;whiteSpace=wrap;html=1;aspect=fixed;" parent="1" vertex="1">
          <mxGeometry x="430" y="230" width="10" height="10" as="geometry" />
        </mxCell>
        <mxCell id="rvrunStQ9OsGQTBkVK9R-6" value="Nome" style="text;html=1;align=center;verticalAlign=middle;whiteSpace=wrap;rounded=0;" parent="1" vertex="1">
          <mxGeometry x="443" y="220" width="30" height="30" as="geometry" />
        </mxCell>
        <mxCell id="rvrunStQ9OsGQTBkVK9R-11" value="" style="ellipse;whiteSpace=wrap;html=1;aspect=fixed;" parent="1" vertex="1">
          <mxGeometry x="430" y="260" width="10" height="10" as="geometry" />
        </mxCell>
        <mxCell id="rvrunStQ9OsGQTBkVK9R-12" value="Descrizione" style="text;html=1;align=center;verticalAlign=middle;whiteSpace=wrap;rounded=0;" parent="1" vertex="1">
          <mxGeometry x="443" y="250" width="60" height="30" as="geometry" />
        </mxCell>
        <mxCell id="rvrunStQ9OsGQTBkVK9R-14" value="" style="ellipse;whiteSpace=wrap;html=1;aspect=fixed;" parent="1" vertex="1">
          <mxGeometry x="470" y="330" width="10" height="10" as="geometry" />
        </mxCell>
        <mxCell id="rvrunStQ9OsGQTBkVK9R-15" value="Data" style="text;html=1;align=center;verticalAlign=middle;whiteSpace=wrap;rounded=0;" parent="1" vertex="1">
          <mxGeometry x="480" y="320" width="30" height="30" as="geometry" />
        </mxCell>
        <mxCell id="rvrunStQ9OsGQTBkVK9R-16" value="" style="ellipse;whiteSpace=wrap;html=1;aspect=fixed;" parent="1" vertex="1">
          <mxGeometry x="470" y="360" width="10" height="10" as="geometry" />
        </mxCell>
        <mxCell id="rvrunStQ9OsGQTBkVK9R-17" value="Luogo" style="text;html=1;align=center;verticalAlign=middle;whiteSpace=wrap;rounded=0;" parent="1" vertex="1">
          <mxGeometry x="480" y="350" width="40" height="30" as="geometry" />
        </mxCell>
        <mxCell id="rvrunStQ9OsGQTBkVK9R-18" value="" style="ellipse;whiteSpace=wrap;html=1;aspect=fixed;" parent="1" vertex="1">
          <mxGeometry x="430" y="290" width="10" height="10" as="geometry" />
        </mxCell>
        <mxCell id="rvrunStQ9OsGQTBkVK9R-19" value="CapMax" style="text;html=1;align=center;verticalAlign=middle;whiteSpace=wrap;rounded=0;" parent="1" vertex="1">
          <mxGeometry x="440" y="280" width="50" height="30" as="geometry" />
        </mxCell>
        <mxCell id="rvrunStQ9OsGQTBkVK9R-25" value="" style="ellipse;whiteSpace=wrap;html=1;aspect=fixed;" parent="1" vertex="1">
          <mxGeometry x="160" y="275" width="10" height="10" as="geometry" />
        </mxCell>
        <mxCell id="rvrunStQ9OsGQTBkVK9R-26" value="Nome" style="text;html=1;align=center;verticalAlign=middle;whiteSpace=wrap;rounded=0;" parent="1" vertex="1">
          <mxGeometry x="170" y="265" width="35" height="30" as="geometry" />
        </mxCell>
        <mxCell id="rvrunStQ9OsGQTBkVK9R-27" value="" style="ellipse;whiteSpace=wrap;html=1;aspect=fixed;" parent="1" vertex="1">
          <mxGeometry x="160" y="305" width="10" height="10" as="geometry" />
        </mxCell>
        <mxCell id="rvrunStQ9OsGQTBkVK9R-28" value="Contatto" style="text;html=1;align=center;verticalAlign=middle;whiteSpace=wrap;rounded=0;" parent="1" vertex="1">
          <mxGeometry x="172" y="298" width="45" height="25" as="geometry" />
        </mxCell>
        <mxCell id="rvrunStQ9OsGQTBkVK9R-33" value="" style="ellipse;whiteSpace=wrap;html=1;aspect=fixed;" parent="1" vertex="1">
          <mxGeometry x="730" y="220" width="10" height="10" as="geometry" />
        </mxCell>
        <mxCell id="rvrunStQ9OsGQTBkVK9R-34" value="Tipo" style="text;html=1;align=center;verticalAlign=middle;whiteSpace=wrap;rounded=0;" parent="1" vertex="1">
          <mxGeometry x="740" y="210" width="30" height="30" as="geometry" />
        </mxCell>
        <mxCell id="rvrunStQ9OsGQTBkVK9R-37" value="" style="ellipse;whiteSpace=wrap;html=1;aspect=fixed;" parent="1" vertex="1">
          <mxGeometry x="730" y="250" width="10" height="10" as="geometry" />
        </mxCell>
        <mxCell id="rvrunStQ9OsGQTBkVK9R-38" value="Quantita" style="text;html=1;align=center;verticalAlign=middle;whiteSpace=wrap;rounded=0;" parent="1" vertex="1">
          <mxGeometry x="740" y="240" width="50" height="30" as="geometry" />
        </mxCell>
        <mxCell id="rvrunStQ9OsGQTBkVK9R-39" value="" style="ellipse;whiteSpace=wrap;html=1;aspect=fixed;" parent="1" vertex="1">
          <mxGeometry x="730" y="280" width="10" height="10" as="geometry" />
        </mxCell>
        <mxCell id="rvrunStQ9OsGQTBkVK9R-40" value="Costo" style="text;html=1;align=center;verticalAlign=middle;whiteSpace=wrap;rounded=0;" parent="1" vertex="1">
          <mxGeometry x="742" y="270" width="30" height="30" as="geometry" />
        </mxCell>
        <mxCell id="rvrunStQ9OsGQTBkVK9R-41" value="" style="ellipse;whiteSpace=wrap;html=1;aspect=fixed;" parent="1" vertex="1">
          <mxGeometry x="730" y="310" width="10" height="10" as="geometry" />
        </mxCell>
        <mxCell id="rvrunStQ9OsGQTBkVK9R-42" value="Fornitore" style="text;html=1;align=center;verticalAlign=middle;whiteSpace=wrap;rounded=0;" parent="1" vertex="1">
          <mxGeometry x="741" y="300" width="50" height="30" as="geometry" />
        </mxCell>
        <mxCell id="rvrunStQ9OsGQTBkVK9R-51" value="contiene" style="rhombus;whiteSpace=wrap;html=1;" parent="1" vertex="1">
          <mxGeometry x="520" y="145" width="60" height="50" as="geometry" />
        </mxCell>
        <mxCell id="rvrunStQ9OsGQTBkVK9R-53" value="partecipa" style="rhombus;whiteSpace=wrap;html=1;" parent="1" vertex="1">
          <mxGeometry x="220" y="145" width="60" height="50" as="geometry" />
        </mxCell>
        <mxCell id="rvrunStQ9OsGQTBkVK9R-58" value="" style="endArrow=none;html=1;rounded=0;" parent="1" edge="1">
          <mxGeometry width="50" height="50" relative="1" as="geometry">
            <mxPoint x="490" y="190" as="sourcePoint" />
            <mxPoint x="490" y="150" as="targetPoint" />
          </mxGeometry>
        </mxCell>
        <mxCell id="rvrunStQ9OsGQTBkVK9R-59" value="" style="endArrow=none;html=1;rounded=0;" parent="1" edge="1">
          <mxGeometry width="50" height="50" relative="1" as="geometry">
            <mxPoint x="320" y="190" as="sourcePoint" />
            <mxPoint x="320" y="150" as="targetPoint" />
          </mxGeometry>
        </mxCell>
        <mxCell id="rvrunStQ9OsGQTBkVK9R-63" value="" style="endArrow=none;html=1;rounded=0;" parent="1" target="rvrunStQ9OsGQTBkVK9R-61" edge="1">
          <mxGeometry width="50" height="50" relative="1" as="geometry">
            <mxPoint x="175" y="260" as="sourcePoint" />
            <mxPoint x="170" y="160" as="targetPoint" />
          </mxGeometry>
        </mxCell>
        <mxCell id="rvrunStQ9OsGQTBkVK9R-61" value="" style="ellipse;whiteSpace=wrap;html=1;aspect=fixed;fillColor=#000000;" parent="1" vertex="1">
          <mxGeometry x="170" y="150" width="10" height="10" as="geometry" />
        </mxCell>
        <mxCell id="rvrunStQ9OsGQTBkVK9R-65" value="" style="endArrow=none;html=1;rounded=0;" parent="1" edge="1">
          <mxGeometry width="50" height="50" relative="1" as="geometry">
            <mxPoint x="434.8" y="380" as="sourcePoint" />
            <mxPoint x="434.8" y="320" as="targetPoint" />
          </mxGeometry>
        </mxCell>
        <mxCell id="rvrunStQ9OsGQTBkVK9R-66" value="" style="ellipse;whiteSpace=wrap;html=1;aspect=fixed;fillColor=#000000;" parent="1" vertex="1">
          <mxGeometry x="430" y="380" width="10" height="10" as="geometry" />
        </mxCell>
        <mxCell id="eSKK0i__fi3eBEM8M7m1-1" value="" style="ellipse;whiteSpace=wrap;html=1;aspect=fixed;" parent="1" vertex="1">
          <mxGeometry x="200" y="232.5" width="10" height="10" as="geometry" />
        </mxCell>
        <mxCell id="eSKK0i__fi3eBEM8M7m1-2" value="BIglietto" style="text;html=1;align=center;verticalAlign=middle;whiteSpace=wrap;rounded=0;" parent="1" vertex="1">
          <mxGeometry x="210" y="225" width="45" height="25" as="geometry" />
        </mxCell>
      </root>
    </mxGraphModel>
  </diagram>
</mxfile>
